# xmcd
#
# Track frame offsets: 
#        150
#        18940
#        29970
#        50695
#        63695
#        84400
#        98840
#        109662
#        127982
#        140287
#        150242
#        162182
#        179100
#
# Disc length: 2655 seconds
#
# Revision: 0
# Processed by: cddbd v1.4PL0 Copyright (c) Steve Scherf et al.
# Submitted via: ExactAudioCopy v0.95a4
#
DISCID=ac0a5d0d
DTITLE=Curtis Jones - Lonesome Bedroom Blues
DYEAR=1999
DGENRE=Blues
TTITLE0=Lonesome Bedroom Blues
TTITLE1=Evil Curse Blues
TTITLE2=Highway 51
TTITLE3=Stackolee
TTITLE4=Curtis Jones' Boogie Woogie
TTITLE5=Tin Pan Alley
TTITLE6=Gut Bucket Blues
TTITLE7=Rolling The Blues
TTITLE8=Black Magic Blues
TTITLE9=Love Fake Blues
TTITLE10=Tour Blues
TTITLE11=Tour Blues (Alternate take)
TTITLE12=Lonesome Bedroom Blues (Alternate Take)
EXTD=
EXTT0=
EXTT1=
EXTT2=
EXTT3=
EXTT4=
EXTT5=
EXTT6=
EXTT7=
EXTT8=
EXTT9=
EXTT10=
EXTT11=
EXTT12=
PLAYORDER=
